<?xml version='1.0' encoding='utf-8'?>
<svg xmlns="http://www.w3.org/2000/svg" version="1.1" width="600px" height="976px" viewBox="0 0 600 976"> <g id="layer1"> </g> <g id="layer2"> <g style="fill:rgb(255,213,68); fill-opacity:1.0; stroke-linejoin: miter"> <path d="M300.3963,337.99976Q237.97089,338.97485,194.30621,381.54785Q151.01447,425.71582,150.0,487.5205Q150.66626,549.3523,193.58942,593.7366Q238.19885,637.1509,299.40128,638.0005Q361.82916,637.1118,405.5588,594.5879Q448.91257,550.4651,450.0,488.6599Q449.40567,426.8291,406.54572,382.3999Q362.00375,338.93677,300.80255,338.00122"/> </g> <g style="fill:rgb(181,94,40); fill-opacity:1.0; stroke-linejoin: miter"> <path d="M300.37885,345.4414Q241.01196,346.3745,199.51556,386.86255Q158.3866,428.85474,157.44122,487.59424Q158.09412,546.3572,198.91266,588.5354Q241.34143,629.7937,299.5521,630.5591Q358.9199,629.6553,400.4385,589.1843Q441.5887,547.20703,442.55905,488.46826Q441.93073,429.70532,401.1339,387.51123Q358.72815,346.23657,300.518,345.4419"/> </g> <g style="fill:rgb(255,213,68); fill-opacity:1.0; stroke-linejoin: miter"> <path d="M300.3276,364.00684Q248.72565,364.8125,212.63159,400.00488Q176.84589,436.51538,176.00726,487.60376Q176.55804,538.7151,212.03912,575.4038Q248.91382,611.29126,299.50513,611.9934Q351.10928,611.25854,387.25693,576.1074Q423.094,539.6345,423.99295,488.54517Q423.50153,437.4353,388.07263,400.70874Q351.25357,364.7815,300.6635,364.0083"/> </g> <g style="fill:rgb(181,94,40); fill-opacity:1.0; stroke-linejoin: miter"> <path d="M285.73242,407.42126C283.16235,408.55212,281.72308,410.19705,280.07825,414.10355L277.91937,419.24384L260.75116,419.24384C243.78853,419.24384,243.68568,419.24384,241.01274,421.91678C238.33995,424.58972,236.59227,429.72995,237.72313,431.58038C238.54549,432.8141,365.3026,433.01962,366.12512,431.786C367.25598,430.0383,364.58307,423.35602,361.9101,421.2999C359.54572,419.44943,357.79803,419.24384,342.37744,419.24384L325.62042,419.24384L324.5924,416.36536C321.09705,406.9073,318.83533,405.87918,301.7699,405.87918C293.03162,405.98203,288.097,406.39322,285.73242,407.42126 Z"/> </g> <g style="fill:rgb(181,94,40); fill-opacity:1.0; stroke-linejoin: miter"> <path d="M245.94746,438.77667C245.33058,439.80475,247.07826,467.76764,250.05959,503.5437C250.882,513.4129,251.80717,526.1606,252.1157,531.8149C253.76048,559.8805,255.40532,566.2545,261.88202,571.70306C267.22778,576.22656,271.03156,576.63776,304.34003,576.3292C334.9756,576.0209,335.48956,576.0209,339.29327,573.5536C344.53632,570.3666,348.03162,564.8152,349.26532,558.0301C349.77936,554.946,350.9101,542.19824,351.8354,529.7588C352.65784,517.31946,354.09705,498.609,354.91956,488.12286C358.0036,448.13196,358.51764,439.70193,358.0036,438.67383C357.18115,437.33743,246.76982,437.44025,245.94746,438.77667 Z M274.83533,457.28152C275.6577,458.92645,276.58295,475.47803,277.4054,503.0296C279.3587,560.70306,279.25586,563.17035,277.097,564.6095C274.01288,566.46014,271.75116,564.0956,270.9287,558.44135C270.62036,555.6657,269.79785,541.58136,269.18103,527.1887C268.56433,512.796,267.53625,491.6183,266.8166,480.1042C265.48016,456.5619,265.9942,453.78616,270.9287,454.40305C272.67645,454.60858,274.11566,455.63663,274.83533,457.28152 Z M305.4709,456.5619C306.80725,458.618,306.9101,465.71155,306.2932,511.15118C305.67645,559.36646,305.4709,563.58154,303.826,564.6095C302.48956,565.43207,301.46155,565.43207,300.22784,564.6095C298.48016,563.58154,298.27454,559.36646,297.55493,511.3568C296.73254,464.27228,296.8354,459.0293,298.27454,456.7675C300.43353,453.58057,303.51758,453.47778,305.4709,456.5619 Z M336.92883,456.66464C337.85406,458.4124,338.05957,461.3937,337.5456,466.73962C337.23724,470.8518,336.51758,485.34717,335.90082,498.91736C334.15308,539.9364,332.61102,562.55347,331.583,563.8901C330.9662,564.6095,329.42413,565.2264,328.0877,565.2264C326.33997,565.2264,325.51758,564.50665,325.00354,562.4506C324.5924,560.9086,324.79797,546.0019,325.4148,529.3476C326.13446,512.59033,326.95685,489.87067,327.26526,478.87048C327.98486,457.38437,328.7046,454.1974,333.2279,454.1974C334.6671,454.1974,336.10638,455.12256,336.92883,456.66464 Z"/> </g> </g> </svg>